<svg id="Layer_1" data-name="Layer 1" xmlns="http://www.w3.org/2000/svg" xmlns:xlink="http://www.w3.org/1999/xlink" viewBox="0 0 28.05 28"><defs><style>.cls-1{fill:none;}.cls-2{clip-path:url(#clip-path);}.cls-3{fill:#c69d5f;}</style><clipPath id="clip-path" transform="translate(-0.03 0)"><rect class="cls-1" width="28" height="28"/></clipPath></defs><g class="cls-2"><path class="cls-3" d="M25.26,3.05a2.39,2.39,0,0,1,.61,1.84,2.58,2.58,0,0,1-1,1.79,1.09,1.09,0,0,0-.19,1.53h0a1.1,1.1,0,0,0,1.54.19,4.79,4.79,0,0,0,1.8-3.32,4.57,4.57,0,0,0-1.17-3.49,4.92,4.92,0,0,0-.72-.65,4.78,4.78,0,0,0-6.69,1L.26,26.22A1.1,1.1,0,0,0,1.12,28h.95a16,16,0,0,0,8.47-2.09,7.47,7.47,0,0,0,3.57-6.75v-.1a2.12,2.12,0,0,1,.39-1.16,3.47,3.47,0,0,1,.74-.8l6.89-5.47a1.08,1.08,0,0,0,.18-1.53h0a1.1,1.1,0,0,0-1.54-.17l-6.89,5.47a5.25,5.25,0,0,0-.65.6l-1.29-1L21.21,3.27l0,0a2.6,2.6,0,0,1,3.63-.54,2.17,2.17,0,0,1,.39.35ZM12.1,17.89A4.16,4.16,0,0,0,11.92,19v.25A5.28,5.28,0,0,1,9.41,24a12.93,12.93,0,0,1-6,1.75l7.17-9.07,1.52,1.18Zm3.92,9A1.09,1.09,0,0,1,14.93,28H13.28a1.1,1.1,0,0,1,0-2.19h1.65A1.09,1.09,0,0,1,16,26.9Zm6,0A1.1,1.1,0,0,1,21,28H19.31a1.1,1.1,0,1,1,0-2.19H21A1.09,1.09,0,0,1,22.05,26.9Zm6,0A1.1,1.1,0,0,1,27,28H25.34a1.1,1.1,0,1,1,0-2.19H27A1.1,1.1,0,0,1,28.08,26.9Z" transform="translate(-0.03 0)"/></g></svg>