<svg id="Layer_1" data-name="Layer 1" xmlns="http://www.w3.org/2000/svg" viewBox="0 0 28 28"><defs><style>.cls-1{fill:#c69d5f;}</style></defs><path class="cls-1" d="M18.16,20.45a1.1,1.1,0,0,0-1.1,1.1,4.27,4.27,0,0,1-8.53,0V18.4l3.89-5.64.06-.1.22-.22a7.88,7.88,0,0,0,2.17-5.6V2.54A2.54,2.54,0,0,0,12.33,0H10.28A1.09,1.09,0,0,0,9.19,1.09v1.1a1.1,1.1,0,0,0,2.19,0h.95a.36.36,0,0,1,.36.35V6.89a5.26,5.26,0,1,1-10.5,0s0-.07,0-.1V2.54a.35.35,0,0,1,.35-.35h.9a1.1,1.1,0,0,0,2.19-.06v-1A1.09,1.09,0,0,0,4.54,0h-2A2.54,2.54,0,0,0,0,2.54v4.3a7.88,7.88,0,0,0,2.17,5.6l.13.13a1.18,1.18,0,0,0,.11.19l3.93,5.71v3.08a6.46,6.46,0,0,0,12.91,0A1.09,1.09,0,0,0,18.16,20.45ZM7.44,14.6a6.91,6.91,0,0,0,1.11-.08L7.41,16.17,6.27,14.52A9.2,9.2,0,0,0,7.44,14.6Zm18.37-2.87V4.38a4.38,4.38,0,1,0-8.75,0v11.7a1.1,1.1,0,0,0,2.19,0V4.38a2.19,2.19,0,1,1,4.38,0v7.35a3.28,3.28,0,1,0,2.18,0Zm-1.09,4.19a1.1,1.1,0,1,1,0-2.19,1.1,1.1,0,0,1,0,2.19Z"/></svg>